<svg width="52" height="52" viewBox="0 0 52 52" fill="none" xmlns="http://www.w3.org/2000/svg">
<rect width="51.3333" height="51.3333" rx="8.7522" fill="white"/>
<path d="M35.7933 28.5796L36.0346 26.2115C36.1633 24.9479 36.2484 24.1135 36.1816 23.5878L36.2049 23.588C37.2953 23.588 38.1791 22.655 38.1791 21.5041C38.1791 20.3532 37.2953 19.4203 36.2049 19.4203C35.1146 19.4203 34.2308 20.3532 34.2308 21.5041C34.2308 22.0246 34.4116 22.5005 34.7105 22.8658C34.2814 23.1453 33.7203 23.7352 32.8759 24.6231L32.8758 24.6232C32.2252 25.3072 31.9 25.6493 31.5371 25.7022C31.336 25.7316 31.1311 25.7014 30.9455 25.6151C30.6104 25.4593 30.387 25.0365 29.9401 24.1909L27.585 19.7334C27.3093 19.2117 27.0786 18.7751 26.8706 18.4237C27.7239 17.9642 28.3082 17.0277 28.3082 15.9472C28.3082 14.4127 27.1297 13.1687 25.676 13.1687C24.2222 13.1687 23.0437 14.4127 23.0437 15.9472C23.0437 17.0277 23.6281 17.9642 24.4814 18.4237C24.2734 18.7751 24.0427 19.2117 23.767 19.7334L21.4118 24.1909C20.965 25.0365 20.7416 25.4593 20.4065 25.6151C20.2209 25.7014 20.016 25.7316 19.8149 25.7022C19.452 25.6493 19.1267 25.3072 18.4762 24.6232C17.6317 23.7353 17.0706 23.1453 16.6415 22.8658C16.9404 22.5005 17.1212 22.0246 17.1212 21.5041C17.1212 20.3532 16.2373 19.4203 15.147 19.4203C14.0567 19.4203 13.1729 20.3532 13.1729 21.5041C13.1729 22.655 14.0567 23.588 15.147 23.588L15.1703 23.5878C15.1036 24.1135 15.1886 24.9479 15.3174 26.2114L15.5587 28.5796C15.6927 29.8942 15.8041 31.1449 15.9405 32.2707H35.4115C35.5479 31.1449 35.6593 29.8942 35.7933 28.5796Z" fill="#791A79"/>
<path d="M24.2441 38.175H27.1078C30.8403 38.175 32.7065 38.175 33.9517 36.9985C34.4951 36.485 34.8393 35.5593 35.0876 34.3546H16.2644C16.5127 35.5593 16.8568 36.485 17.4003 36.9985C18.6455 38.175 20.5117 38.175 24.2441 38.175Z" fill="#791A79"/>
</svg>
