<svg width="52" height="52" viewBox="0 0 52 52" fill="none" xmlns="http://www.w3.org/2000/svg">
<rect width="51.3333" height="51.3333" rx="8.7522" fill="white"/>
<path fill-rule="evenodd" clip-rule="evenodd" d="M23.1652 15.6692H28.1789C32.9059 15.6692 35.2694 15.6692 36.7379 17.134C37.749 18.1426 38.0639 19.5744 38.162 21.9076C38.1814 22.3703 38.1912 22.6016 38.1048 22.756C38.0184 22.9104 37.6734 23.103 36.9836 23.4882C36.2174 23.9161 35.6995 24.7336 35.6995 25.6717C35.6995 26.6098 36.2174 27.4273 36.9836 27.8552C37.6734 28.2404 38.0184 28.4331 38.1048 28.5874C38.1912 28.7418 38.1814 28.9731 38.162 29.4358C38.0639 31.769 37.749 33.2008 36.7379 34.2094C35.2694 35.6742 32.9059 35.6742 28.1789 35.6742H23.1652C18.4382 35.6742 16.0748 35.6742 14.6063 34.2094C13.5952 33.2008 13.2803 31.769 13.1822 29.4358C13.1627 28.9731 13.153 28.7418 13.2394 28.5874C13.3258 28.4331 13.6707 28.2404 14.3606 27.8552C15.1268 27.4273 15.6447 26.6098 15.6447 25.6717C15.6447 24.7336 15.1268 23.9161 14.3606 23.4882C13.6707 23.103 13.3258 22.9104 13.2394 22.756C13.153 22.6016 13.1627 22.3703 13.1822 21.9076C13.2803 19.5744 13.5952 18.1426 14.6063 17.134C16.0748 15.6692 18.4382 15.6692 23.1652 15.6692ZM30.108 21.2577C30.4751 21.6239 30.4751 22.2176 30.108 22.5838L22.5874 30.0857C22.2203 30.4519 21.6251 30.4519 21.258 30.0857C20.8908 29.7195 20.8908 29.1258 21.258 28.7596L28.7785 21.2577C29.1457 20.8915 29.7409 20.8915 30.108 21.2577ZM28.8165 30.0478C29.5088 30.0478 30.07 29.488 30.07 28.7975C30.07 28.107 29.5088 27.5472 28.8165 27.5472C28.1243 27.5472 27.5631 28.107 27.5631 28.7975C27.5631 29.488 28.1243 30.0478 28.8165 30.0478ZM22.5494 23.7962C23.2417 23.7962 23.8028 23.2364 23.8028 22.5459C23.8028 21.8554 23.2417 21.2956 22.5494 21.2956C21.8572 21.2956 21.296 21.8554 21.296 22.5459C21.296 23.2364 21.8572 23.7962 22.5494 23.7962Z" fill="#791A79"/>
</svg>
