<svg width="52" height="52" viewBox="0 0 52 52" fill="none" xmlns="http://www.w3.org/2000/svg">
<rect width="51.3333" height="51.3333" rx="8.7522" fill="white"/>
<path d="M24.7341 13.1687C19.4598 13.1738 16.7309 13.2682 14.9997 14.9994C13.2684 16.7307 13.1741 19.4596 13.1689 24.7338H19.3124C18.8736 24.1857 18.5457 23.5391 18.3669 22.824C17.6939 20.132 20.1323 17.6937 22.8242 18.3666C23.5394 18.5454 24.1859 18.8733 24.7341 19.3121V13.1687Z" fill="#791A79"/>
<path d="M13.1689 26.6093C13.1741 31.8835 13.2684 34.6124 14.9997 36.3436C16.7309 38.0749 19.4598 38.1692 24.7341 38.1744V28.3268C23.7593 30.2738 21.7458 31.6105 19.4202 31.6105C18.9023 31.6105 18.4825 31.1907 18.4825 30.6728C18.4825 30.1549 18.9023 29.7351 19.4202 29.7351C21.3417 29.7351 22.9517 28.4014 23.375 26.6093H13.1689Z" fill="#791A79"/>
<path d="M26.6095 38.1744C31.8837 38.1692 34.6126 38.0749 36.3439 36.3436C38.0751 34.6124 38.1695 31.8835 38.1746 26.6093H27.9686C28.3919 28.4014 30.0019 29.7351 31.9234 29.7351C32.4413 29.7351 32.8611 30.1549 32.8611 30.6728C32.8611 31.1907 32.4413 31.6105 31.9234 31.6105C29.5977 31.6105 27.5843 30.2738 26.6095 28.3268V38.1744Z" fill="#791A79"/>
<path d="M38.1746 24.7338C38.1695 19.4596 38.0751 16.7307 36.3439 14.9994C34.6126 13.2682 31.8837 13.1738 26.6095 13.1687V19.3121C27.1577 18.8733 27.8042 18.5454 28.5194 18.3666C31.2113 17.6937 33.6497 20.132 32.9767 22.824C32.7979 23.5391 32.47 24.1857 32.0312 24.7338H38.1746Z" fill="#791A79"/>
<path d="M22.3693 20.1861C23.7591 20.5336 24.7341 21.7822 24.7341 23.2148V24.7338H23.215C21.7825 24.7338 20.5338 23.7589 20.1864 22.3691C19.8568 21.0507 21.051 19.8565 22.3693 20.1861Z" fill="#791A79"/>
<path d="M26.6095 23.2148V24.7338H28.1286C29.5611 24.7338 30.8098 23.7589 31.1572 22.3691C31.4868 21.0507 30.2926 19.8565 28.9742 20.1861C27.5845 20.5336 26.6095 21.7822 26.6095 23.2148Z" fill="#791A79"/>
</svg>
