<svg width="19" height="17" viewBox="0 0 19 17" fill="none" xmlns="http://www.w3.org/2000/svg">
<path d="M7.15 2.88333C7.15 2.31754 7.37476 1.77492 7.77484 1.37484C8.17492 0.974761 8.71754 0.75 9.28333 0.75C9.84913 0.75 10.3918 0.974761 10.7918 1.37484C11.1919 1.77492 11.4167 2.31754 11.4167 2.88333C12.6416 3.46256 13.6859 4.36422 14.4375 5.49165C15.1891 6.61909 15.6198 7.92981 15.6833 9.28333V12.4833C15.7636 13.1465 15.9985 13.7815 16.369 14.3373C16.7395 14.8931 17.2354 15.3542 17.8167 15.6833H0.75C1.33127 15.3542 1.82713 14.8931 2.19767 14.3373C2.5682 13.7815 2.80306 13.1465 2.88333 12.4833V9.28333C2.94686 7.92981 3.37752 6.61909 4.12915 5.49165C4.88077 4.36422 5.92503 3.46256 7.15 2.88333Z" stroke="#4A4A4A" stroke-width="1.5" stroke-linecap="round" stroke-linejoin="round"/>
</svg>
